<svg width="56" height="56" viewBox="0 0 56 56" fill="none" xmlns="http://www.w3.org/2000/svg">
<path d="M28.24 46C27.6533 46 27.16 45.8 26.76 45.4C26.36 45 26.16 44.5067 26.16 43.92V14.76H30.32V43.92C30.32 44.5067 30.12 45 29.72 45.4C29.32 45.8 28.8267 46 28.24 46ZM17.52 18.6C16.96 18.6 16.4933 18.4267 16.12 18.08C15.7733 17.7067 15.6 17.24 15.6 16.68C15.6 16.12 15.7733 15.6667 16.12 15.32C16.4933 14.9467 16.96 14.76 17.52 14.76H38.92C39.48 14.76 39.9333 14.9467 40.28 15.32C40.6533 15.6667 40.84 16.12 40.84 16.68C40.84 17.24 40.6533 17.7067 40.28 18.08C39.9333 18.4267 39.48 18.6 38.92 18.6H17.52Z" fill="black"/>
<circle cx="28" cy="28" r="26.5" stroke="black" stroke-width="3"/>
</svg>
