<svg width="113" height="41" viewBox="0 0 113 41" fill="none" xmlns="http://www.w3.org/2000/svg">
<path fill-rule="evenodd" clip-rule="evenodd" d="M11.16 30.64C11.56 31.04 12.0533 31.24 12.64 31.24C13.2267 31.24 13.72 31.04 14.12 30.64C14.52 30.24 14.72 29.7467 14.72 29.16V3.84H23.32C23.88 3.84 24.3333 3.66667 24.68 3.32C25.0533 2.94667 25.24 2.48 25.24 1.92C25.24 1.36 25.0533 0.906667 24.68 0.56C24.3333 0.186667 23.88 0 23.32 0H14.72H10.56H1.92C1.36 0 0.893333 0.186667 0.52 0.56C0.173333 0.906667 0 1.36 0 1.92C0 2.48 0.173333 2.94667 0.52 3.32C0.893333 3.66667 1.36 3.84 1.92 3.84H10.56V29.16C10.56 29.7467 10.76 30.24 11.16 30.64ZM27.3097 29.96C28.8564 30.92 30.603 31.4 32.5497 31.4C34.4964 31.4 36.243 30.92 37.7897 29.96C38.743 29.3519 39.5697 28.6171 40.2697 27.7557V29.24C40.2697 29.8267 40.4564 30.32 40.8297 30.72C41.2297 31.0933 41.723 31.28 42.3097 31.28C42.8964 31.28 43.3764 31.0933 43.7497 30.72C44.1497 30.32 44.3497 29.8267 44.3497 29.24V20.32C44.3497 18.2133 43.8564 16.32 42.8697 14.64C42.7847 14.4913 42.697 14.3454 42.6066 14.2024L49.859 6.60236C50.5909 5.80375 50.5912 4.53981 49.7927 3.80775C49.4267 3.40845 48.9276 3.2244 48.4202 3.24103C47.9129 3.25767 47.3977 3.47474 46.9984 3.87404L39.8692 11.2767C39.5756 11.0644 39.2691 10.8655 38.9497 10.68C37.2964 9.69333 35.4297 9.2 33.3497 9.2C31.2697 9.2 29.3897 9.69333 27.7097 10.68C27.3352 10.8975 26.9778 11.1334 26.6375 11.3878L25.8376 10.5291C25.1056 9.73049 23.8418 9.66316 23.0433 10.3952C22.2448 11.1273 22.1775 12.3925 22.9095 13.1911L23.95 14.3111C23.8818 14.4191 23.815 14.5288 23.7497 14.64C22.7897 16.32 22.3097 18.2133 22.3097 20.32C22.3097 22.4267 22.7497 24.32 23.6297 26C24.5364 27.6533 25.763 28.9733 27.3097 29.96ZM26.7549 17.33C26.4048 18.2353 26.2297 19.232 26.2297 20.32C26.2297 21.7333 26.5364 23.0133 27.1497 24.16C27.7897 25.28 28.643 26.1733 29.7097 26.84C30.803 27.48 32.0164 27.8 33.3497 27.8C34.7097 27.8 35.923 27.48 36.9897 26.84C38.0564 26.1733 38.8964 25.28 39.5097 24.16C40.123 23.0133 40.4297 21.7333 40.4297 20.32C40.4297 19.1481 40.2266 18.0822 39.8204 17.1222L34.5543 22.6408C34.1551 23.0401 33.6232 23.24 33.0909 23.24C32.492 23.24 32.0268 22.9738 31.6275 22.5745L26.7549 17.33ZM29.1991 14.1375L33.0909 18.315L37.2689 13.9768C37.1776 13.9158 37.0845 13.8569 36.9897 13.8C35.923 13.1333 34.7097 12.8 33.3497 12.8C32.0164 12.8 30.803 13.1333 29.7097 13.8C29.5337 13.9056 29.3635 14.0181 29.1991 14.1375ZM53.1819 30.56C54.7819 31.12 56.5152 31.4 58.3819 31.4C60.2752 31.4 61.8485 31.1067 63.1019 30.52C64.3819 29.9333 65.3419 29.1467 65.9819 28.16C66.6485 27.1733 66.9819 26.0667 66.9819 24.84C66.9819 23.7733 66.7285 22.84 66.2219 22.04C65.7152 21.2133 64.8752 20.4933 63.7019 19.88C62.5552 19.2667 60.9819 18.76 58.9819 18.36C57.5419 18.0667 56.4485 17.7733 55.7019 17.48C54.9552 17.16 54.4485 16.8133 54.1819 16.44C53.9419 16.04 53.8219 15.6 53.8219 15.12C53.8219 14.3467 54.2219 13.76 55.0219 13.36C55.8485 12.96 56.8485 12.76 58.0219 12.76C59.0352 12.76 59.9285 12.88 60.7019 13.12C61.4752 13.36 62.1952 13.8 62.8619 14.44C63.2619 14.8133 63.7552 15.0533 64.3419 15.16C64.9285 15.2667 65.4352 15.1733 65.8619 14.88C66.2885 14.56 66.5152 14.1733 66.5419 13.72C66.5685 13.24 66.3952 12.7867 66.0219 12.36C65.2219 11.3733 64.1419 10.6 62.7819 10.04C61.4219 9.48 59.8619 9.2 58.1019 9.2C56.7419 9.2 55.4352 9.42667 54.1819 9.88C52.9285 10.3067 51.9019 10.9733 51.1019 11.88C50.3019 12.76 49.9019 13.88 49.9019 15.24C49.9019 16.7867 50.5019 18.0933 51.7019 19.16C52.9285 20.2267 54.8885 21.0267 57.5819 21.56C59.6619 21.9333 61.0885 22.4133 61.8619 23C62.6619 23.5867 63.0485 24.28 63.0219 25.08C62.9952 25.88 62.5685 26.5333 61.7419 27.04C60.9419 27.5467 59.7685 27.8 58.2219 27.8C56.9952 27.8 55.8752 27.5867 54.8619 27.16C53.8752 26.7067 53.1552 26.2267 52.7019 25.72C52.3285 25.32 51.8752 25.0933 51.3419 25.04C50.8352 24.96 50.3152 25.1333 49.7819 25.56C49.3285 25.9067 49.0619 26.36 48.9819 26.92C48.9285 27.4533 49.1019 27.9333 49.5019 28.36C50.3819 29.24 51.6085 29.9733 53.1819 30.56ZM76.0606 23.1686V29.28C76.0606 29.8667 75.874 30.3467 75.5006 30.72C75.154 31.0667 74.6873 31.24 74.1006 31.24C73.514 31.24 73.034 31.0667 72.6606 30.72C72.314 30.3467 72.1406 29.8667 72.1406 29.28V1.96C72.1406 1.37333 72.314 0.906667 72.6606 0.56C73.034 0.186667 73.514 0 74.1006 0C74.6873 0 75.154 0.186667 75.5006 0.56C75.874 0.906667 76.0606 1.37333 76.0606 1.96V18.2352L85.7806 9.56C86.1806 9.18667 86.6206 9.01333 87.1006 9.04C87.6073 9.06667 88.034 9.28 88.3806 9.68C88.754 10.08 88.9273 10.52 88.9006 11C88.874 11.48 88.6606 11.9067 88.2606 12.28L80.9193 18.8322L88.6606 28.36C89.0073 28.7867 89.154 29.2533 89.1006 29.76C89.074 30.24 88.834 30.6667 88.3806 31.04C87.954 31.3867 87.474 31.5333 86.9406 31.48C86.434 31.4533 86.0073 31.2267 85.6606 30.8L78.0515 21.3917L76.0606 23.1686ZM97.8741 40.6C98.2474 40.76 98.5674 40.84 98.8341 40.84C99.5541 40.84 100.074 40.4267 100.394 39.6L112.634 12.08C113.167 10.9067 112.834 10.0667 111.634 9.56C110.487 9.08 109.647 9.4 109.114 10.52L102.685 25.0423L95.3541 10.48C95.1141 9.97333 94.7674 9.64 94.3141 9.48C93.8607 9.29333 93.3807 9.30667 92.8741 9.52C92.3674 9.73333 92.0074 10.08 91.7941 10.56C91.6074 11.0133 91.6474 11.4933 91.9141 12L100.902 29.0723L96.9141 38.08C96.3807 39.2267 96.7007 40.0667 97.8741 40.6Z" fill="black"/>
</svg>
